<?xml version="1.0" standalone="no"?>
<!DOCTYPE svg PUBLIC "-//W3C//DTD SVG 20010904//EN" "http://www.w3.org/TR/2001/REC-SVG-20010904/DTD/svg10.dtd">
<svg xmlns="http://www.w3.org/2000/svg" version="1.0" width="1024.000000pt" height="1536.000000pt" viewBox="0 0 1024.000000 1536.000000" preserveAspectRatio="xMidYMid meet">
<metadata>
Created by potrace 1.16, written by Peter Selinger 2001-2019
<meta name="Producer" content="Online-Convert"/></metadata>
<g transform="translate(0.000000,1536.000000) scale(0.100000,-0.100000)" fill="#000000" stroke="none">
<path d="M4930 12821 c-264 -23 -495 -108 -691 -255 -111 -84 -196 -176 -276 -298 -82 -124 -127 -229 -161 -371 -25 -105 -27 -126 -26 -337 1 -220 9 -296 50 -437 5 -17 0 -25 -23 -37 -41 -21 -101 -90 -126 -145 -29 -63 -35 -216 -13 -332 41 -218 123 -376 240 -460 35 -26 44 -42 86 -157 56 -153 165 -371 216 -430 l36 -43 -7 -82 c-11 -144 -26 -240 -42 -270 -20 -40 -75 -64 -738 -330 -637 -256 -705 -285 -794 -333 -215 -118 -373 -318 -476 -604 -30 -86 -84 -301 -184 -745 -38 -171 -86 -377 -106 -460 l-36 -150 47 -43 c104 -95 305 -191 614 -292 217 -72 378 -116 387 -106 5 5 -26 555 -57 1006 -5 74 -13 212 -16 305 -7 162 -6 173 15 220 28 65 83 121 146 151 l50 24 2080 0 c2070 0 2080 -1 2125 -21 83 -38 152 -127 165 -216 4 -21 -3 -175 -14 -343 -63 -945 -73 -1121 -68 -1126 16 -16 382 91 588 171 231 90 424 201 450 258 8 18 4 46 -15 122 -13 55 -61 260 -106 455 -156 682 -193 810 -282 982 -93 179 -230 323 -391 412 -77 42 -246 113 -822 344 -761 305 -708 276 -730 392 -7 41 -17 121 -21 177 l-7 102 39 44 c49 56 161 276 218 431 40 110 47 122 88 152 146 105 249 359 250 613 0 98 -13 157 -48 218 -28 49 -100 113 -126 113 -22 0 -23 -8 7 81 71 207 92 457 56 673 -24 145 -67 284 -112 363 -64 111 -167 200 -264 228 -40 12 -65 29 -115 81 -159 160 -332 254 -530 288 -113 19 -397 28 -530 17z m911 -907 c72 -48 162 -137 204 -200 37 -55 94 -218 120 -344 9 -41 19 -126 22 -189 6 -102 4 -114 -10 -108 -76 29 -114 32 -437 32 -365 0 -402 -5 -484 -60 -34 -23 -46 -25 -147 -25 -93 0 -115 3 -138 19 -15 11 -56 30 -91 43 -63 22 -75 23 -400 23 -285 0 -342 -3 -383 -17 l-48 -16 6 81 c13 173 46 333 92 442 26 62 90 165 102 165 4 0 13 -16 19 -35 16 -42 61 -81 110 -95 154 -42 736 40 1064 151 103 35 257 108 303 144 17 13 33 24 36 25 4 0 31 -16 60 -36z m-983 -961 c27 -53 17 -261 -17 -352 -30 -81 -44 -86 -269 -89 -108 -2 -221 -1 -250 3 -106 13 -135 71 -148 292 -6 95 -4 116 10 138 l16 25 325 0 c299 0 325 -1 333 -17z m1188 -8 c31 -47 -1 -326 -43 -384 -30 -40 -86 -49 -303 -50 -234 -1 -263 7 -298 82 -42 89 -56 321 -22 361 11 14 55 16 331 16 l319 0 16 -25z m-2155 -82 c12 -27 37 -84 57 -128 l37 -79 6 70 c7 74 30 134 53 134 9 0 15 -21 20 -67 20 -200 73 -355 130 -378 45 -19 513 -31 588 -16 119 25 170 93 207 274 25 119 41 158 76 185 53 42 122 16 152 -55 7 -19 22 -78 33 -131 36 -178 93 -248 219 -272 62 -12 286 -12 444 -1 99 7 109 9 137 36 39 37 63 104 95 261 14 71 28 139 31 152 6 31 21 28 45 -10 16 -27 19 -47 17 -106 -2 -39 -2 -72 -1 -72 1 0 32 56 68 126 73 137 86 146 117 84 55 -109 -13 -425 -118 -550 -28 -33 -101 -73 -116 -64 -4 3 -8 -1 -8 -10 0 -18 -63 -207 -102 -305 -76 -192 -134 -284 -273 -430 -233 -245 -411 -331 -686 -331 -278 0 -410 70 -699 367 -170 174 -205 237 -326 583 -40 115 -46 125 -72 132 -68 18 -158 161 -198 313 -25 98 -26 270 -1 308 26 39 45 34 68 -20z m657 -1661 c289 -221 701 -253 1032 -81 41 22 116 68 165 104 50 36 93 65 96 65 4 0 9 -17 12 -37 16 -120 73 -232 132 -260 19 -9 35 -22 35 -28 0 -23 -120 -192 -198 -280 -140 -157 -387 -358 -597 -483 l-105 -64 -58 32 c-264 149 -601 438 -742 638 -89 126 -109 164 -90 170 8 3 33 23 56 46 48 48 79 124 96 232 l11 73 50 -42 c27 -23 74 -61 105 -85z"/>
<path d="M3092 7600 c-18 -11 -41 -34 -52 -52 -34 -57 -31 -120 65 -1428 67 -906 61 -848 96 -882 l27 -28 1891 0 1891 0 30 28 c38 34 36 24 90 797 22 319 50 702 61 850 12 149 22 358 23 466 1 184 0 198 -19 219 -47 53 65 50 -2077 50 -1971 0 -1993 0 -2026 -20z m2379 -490 c22 -12 49 -60 49 -88 0 -11 -86 -251 -191 -533 -105 -283 -215 -581 -245 -664 -60 -166 -81 -195 -140 -195 -47 0 -94 45 -94 89 0 28 77 248 348 986 144 392 140 383 171 400 31 17 75 19 102 5z m-817 -264 c42 -18 66 -51 66 -94 0 -40 -4 -44 -190 -194 -80 -65 -165 -135 -190 -156 l-45 -39 30 -25 c17 -14 105 -85 197 -157 92 -72 174 -141 183 -153 50 -73 -27 -168 -115 -142 -28 9 -345 252 -491 376 -127 109 -125 112 201 372 233 185 286 223 313 225 4 1 23 -5 41 -13z m1193 -48 c328 -259 462 -371 472 -397 16 -36 6 -73 -27 -103 -29 -27 -470 -372 -512 -401 -61 -42 -152 3 -152 75 0 19 5 45 11 56 6 11 101 91 211 178 110 86 200 160 200 163 -1 3 -22 23 -48 44 -261 213 -353 291 -363 308 -22 42 11 114 61 132 43 16 71 5 147 -55z"/>
<path d="M2820 5085 c-9 -10 -11 -42 -8 -103 6 -134 53 -201 162 -235 32 -9 491 -12 2141 -12 2022 0 2102 1 2153 19 68 23 115 64 137 119 23 56 32 191 15 212 -11 13 -264 15 -2300 15 -2021 0 -2289 -2 -2300 -15z"/>
</g>
</svg>
