<?xml version="1.0" standalone="no"?>
<!DOCTYPE svg PUBLIC "-//W3C//DTD SVG 20010904//EN" "http://www.w3.org/TR/2001/REC-SVG-20010904/DTD/svg10.dtd">
<svg xmlns="http://www.w3.org/2000/svg" version="1.0" width="933.000000pt" height="1133.000000pt" viewBox="0 0 933.000000 1133.000000" preserveAspectRatio="xMidYMid meet">
<metadata>
Created by potrace 1.16, written by Peter Selinger 2001-2019
<meta name="Producer" content="Online-Convert"/></metadata>
<g transform="translate(0.000000,1133.000000) scale(0.100000,-0.100000)" fill="#000000" stroke="none">
<path d="M4399 11160 c-294 -28 -613 -134 -831 -276 -455 -297 -738 -834 -738 -1403 0 -182 31 -372 95 -587 6 -18 -2 -26 -47 -52 -120 -67 -191 -202 -207 -392 -21 -237 46 -515 168 -703 47 -72 140 -166 190 -191 21 -11 32 -33 59 -117 67 -207 157 -395 272 -573 l70 -107 0 -92 c-1 -125 -25 -318 -45 -361 -20 -41 -73 -91 -119 -112 -17 -7 -139 -58 -271 -113 -397 -163 -812 -336 -966 -401 -79 -34 -229 -95 -333 -137 -336 -132 -450 -200 -615 -358 -119 -115 -205 -237 -280 -396 -98 -207 -137 -343 -295 -1029 -42 -179 -98 -422 -126 -540 -29 -118 -71 -299 -94 -401 l-43 -186 56 -45 c199 -161 460 -276 956 -423 176 -52 374 -99 382 -92 2 2 -3 107 -12 233 -18 279 -81 1267 -97 1530 -16 262 1 337 102 447 67 73 140 108 250 119 49 4 1321 7 2871 6 l2784 -3 57 -23 c128 -52 223 -182 235 -320 3 -37 0 -150 -6 -252 -6 -102 -22 -383 -36 -625 -14 -242 -34 -590 -45 -774 -12 -183 -19 -336 -16 -338 10 -11 465 113 685 187 252 84 477 195 632 312 64 48 78 63 74 81 -33 152 -73 325 -179 777 -244 1037 -283 1176 -396 1405 -81 163 -136 239 -254 353 -141 135 -279 216 -566 332 -85 34 -330 135 -545 225 -214 89 -554 229 -755 309 -201 81 -382 158 -403 172 -65 43 -90 129 -105 369 l-8 120 41 55 c128 169 292 508 341 703 14 57 21 70 47 83 151 79 294 353 337 644 15 106 15 254 0 325 -27 129 -112 260 -195 299 l-34 16 15 48 c29 95 74 280 91 377 24 141 24 465 0 590 -62 316 -142 489 -302 650 -95 97 -179 149 -260 162 -33 5 -58 23 -148 109 -215 205 -426 312 -722 365 -97 17 -168 22 -375 24 -140 2 -293 0 -341 -5z m1286 -1243 c181 -134 304 -314 370 -543 49 -170 111 -531 94 -549 -3 -3 -25 2 -49 10 -70 25 -244 35 -593 35 -453 0 -563 -15 -646 -89 -23 -20 -35 -21 -201 -21 -150 0 -180 2 -191 16 -22 27 -104 62 -175 76 -50 9 -187 13 -499 13 -433 0 -482 -4 -567 -40 -16 -6 -18 0 -18 66 0 85 32 316 60 437 32 135 115 305 197 402 30 37 43 38 43 5 0 -67 64 -151 138 -183 98 -43 291 -38 682 14 453 61 719 136 1045 294 77 38 158 79 180 93 45 27 46 27 130 -36z m-1774 -1247 l378 0 28 -24 c27 -24 28 -28 27 -113 -2 -93 -29 -298 -45 -342 -19 -49 -59 -97 -102 -122 -42 -24 -45 -24 -353 -27 l-311 -3 -51 46 c-28 25 -55 60 -61 78 -27 83 -50 424 -32 470 14 35 44 48 100 42 24 -3 214 -5 422 -5z m2040 -19 c14 -17 19 -39 19 -80 0 -95 -38 -399 -54 -430 -9 -16 -34 -45 -58 -65 l-42 -36 -300 0 c-176 0 -316 4 -338 10 -48 14 -94 53 -119 102 -24 47 -49 221 -52 360 -2 90 0 98 22 122 14 15 38 30 53 34 16 4 213 7 439 7 l411 0 19 -24z m-2878 -296 c14 -27 37 -63 51 -80 l25 -30 1 117 c0 154 18 201 54 145 9 -12 31 -113 50 -224 20 -110 45 -226 56 -256 22 -57 70 -110 118 -128 78 -30 668 -36 810 -9 86 17 137 57 180 140 29 58 54 148 116 415 18 77 35 98 96 116 50 15 104 4 141 -29 27 -25 33 -45 74 -227 68 -303 113 -380 243 -412 136 -33 731 -25 817 11 90 38 126 99 159 271 13 72 32 173 42 225 16 92 34 130 59 130 22 0 29 -32 35 -150 l5 -115 78 154 c42 85 77 160 77 168 0 47 74 -31 95 -100 28 -95 13 -269 -40 -451 -50 -174 -100 -244 -222 -312 -34 -20 -63 -41 -63 -48 0 -56 -144 -407 -246 -601 -95 -180 -334 -452 -510 -582 -162 -119 -355 -200 -544 -229 -223 -33 -432 1 -643 107 -129 64 -222 135 -381 289 -153 150 -247 258 -304 353 -71 117 -213 454 -259 613 -17 60 -19 62 -80 93 -108 56 -173 148 -226 316 -40 129 -61 265 -54 358 7 106 21 149 59 193 l31 35 37 -108 c20 -59 48 -130 63 -158z m657 -1952 c103 -98 218 -177 355 -244 143 -69 277 -110 440 -134 291 -42 630 39 899 215 90 59 197 143 241 189 l30 32 16 -109 c24 -164 72 -252 176 -324 51 -34 51 -30 -10 -136 -128 -226 -463 -553 -820 -799 -164 -114 -380 -253 -394 -253 -20 0 -463 301 -601 409 -325 254 -544 493 -637 692 l-24 52 57 44 c111 86 152 161 179 326 9 59 18 107 20 107 1 0 34 -30 73 -67z"/>
<path d="M1905 4135 c-52 -18 -101 -72 -116 -127 -12 -45 -10 -102 41 -943 91 -1488 133 -2123 143 -2145 7 -13 27 -35 46 -47 l34 -23 2633 2 c2615 3 2632 3 2654 23 51 46 44 -18 105 930 58 891 125 2005 126 2090 2 116 -34 188 -116 233 -28 16 -238 17 -2770 19 -2344 2 -2746 0 -2780 -12z m3291 -716 c47 -44 57 -74 44 -132 -7 -29 -90 -261 -186 -517 -95 -256 -236 -636 -314 -845 -77 -209 -146 -392 -152 -408 -6 -15 -26 -41 -45 -57 -79 -70 -213 -8 -213 99 0 17 74 228 164 468 90 241 241 646 336 901 157 420 176 465 208 493 32 28 40 31 84 27 33 -4 57 -13 74 -29z m-1102 -345 c58 -44 73 -137 29 -186 -13 -15 -466 -374 -571 -454 -11 -8 2 -22 65 -69 201 -150 521 -406 527 -420 19 -50 -3 -117 -50 -154 -30 -24 -101 -29 -137 -9 -12 6 -94 68 -182 138 -88 70 -232 181 -320 247 -196 148 -232 182 -241 229 -12 66 9 107 89 172 173 140 643 506 666 519 32 17 91 11 125 -13z m1531 -2 c39 -24 582 -457 659 -525 54 -48 59 -56 63 -103 4 -35 0 -60 -11 -81 -9 -18 -87 -87 -188 -165 -95 -75 -254 -201 -353 -281 -183 -149 -214 -167 -272 -153 -39 10 -90 67 -98 109 -11 59 9 90 109 169 109 86 455 366 475 384 11 10 -34 50 -250 221 -327 257 -329 260 -329 321 0 26 7 56 15 66 42 55 123 72 180 38z"/>
<path d="M1472 583 c3 -93 9 -128 26 -167 59 -130 157 -194 320 -207 142 -12 5661 -10 5750 1 40 5 93 18 117 29 63 28 137 101 170 168 25 51 29 72 33 176 l5 117 -3213 0 -3212 0 4 -117z"/>
</g>
</svg>
