<?xml version="1.0" standalone="no"?>
<!DOCTYPE svg PUBLIC "-//W3C//DTD SVG 20010904//EN" "http://www.w3.org/TR/2001/REC-SVG-20010904/DTD/svg10.dtd">
<svg xmlns="http://www.w3.org/2000/svg" version="1.0" width="888.000000pt" height="1115.000000pt" viewBox="0 0 888.000000 1115.000000" preserveAspectRatio="xMidYMid meet">
<metadata>
Created by potrace 1.16, written by Peter Selinger 2001-2019
<meta name="Producer" content="Online-Convert"/></metadata>
<g transform="translate(0.000000,1115.000000) scale(0.100000,-0.100000)" fill="#000000" stroke="none">
<path d="M0 5575 l0 -5575 4440 0 4440 0 0 5575 0 5575 -4440 0 -4440 0 0 -5575z m4700 5390 c355 -48 588 -151 835 -369 55 -49 85 -67 138 -84 38 -12 94 -39 125 -59 170 -108 351 -382 431 -652 55 -183 65 -265 65 -501 1 -236 -15 -357 -71 -553 l-29 -97 61 -63 c112 -114 155 -246 155 -475 0 -167 -22 -295 -74 -434 -47 -126 -90 -192 -188 -291 l-87 -89 -56 -166 c-63 -186 -173 -421 -261 -556 l-58 -88 13 -181 c12 -189 24 -235 65 -262 12 -8 113 -52 226 -99 240 -99 526 -223 840 -366 206 -94 524 -230 537 -230 19 0 187 -83 283 -140 240 -143 386 -289 498 -500 56 -106 83 -193 167 -545 41 -170 122 -506 180 -745 153 -628 205 -849 205 -874 0 -30 -86 -112 -185 -176 -212 -138 -536 -259 -945 -354 -145 -33 -145 -34 -148 -12 -3 23 43 619 108 1394 22 260 40 499 40 531 0 111 -48 195 -142 247 l-53 29 -2975 0 -2975 0 -59 -29 c-60 -30 -109 -84 -133 -149 -20 -54 -15 -164 37 -793 72 -883 99 -1238 95 -1242 -6 -6 -413 111 -546 156 -295 101 -559 236 -680 349 l-26 24 34 147 c115 499 458 1868 487 1940 105 265 287 466 571 629 39 22 162 77 274 122 112 45 256 106 320 135 64 30 233 108 376 174 359 165 332 153 605 268 259 109 281 124 299 192 10 36 31 262 31 325 0 22 -20 64 -66 137 -96 152 -195 362 -257 545 l-54 160 -80 80 c-148 149 -233 345 -264 606 -29 251 27 459 164 605 54 58 57 64 47 90 -44 114 -80 357 -80 536 -1 692 400 1338 993 1599 92 41 269 96 382 119 218 45 607 62 805 35z m2614 -6965 c14 -5 33 -21 42 -35 19 -29 24 49 -51 -870 -13 -165 -40 -502 -60 -750 -19 -247 -42 -533 -50 -635 -9 -102 -22 -276 -30 -387 -17 -237 -28 -272 -98 -304 -41 -18 -108 -19 -2676 -19 l-2635 0 -42 21 c-56 27 -80 77 -88 184 -4 44 -20 260 -36 480 -39 510 -73 955 -110 1410 -63 793 -66 834 -49 863 8 15 26 32 39 39 20 10 625 13 2922 13 1817 0 2906 -4 2922 -10z m449 -3049 l42 -40 -1 -128 c-1 -98 -7 -143 -22 -190 -50 -156 -167 -267 -337 -320 -58 -17 -176 -18 -3040 -18 -2864 0 -2982 1 -3040 18 -91 28 -151 65 -211 130 -97 104 -134 209 -134 380 0 109 10 138 60 181 l32 26 3304 0 3305 0 42 -39z"/>
<path d="M5350 9681 c0 -20 -215 -153 -365 -226 -238 -117 -497 -194 -767 -229 -198 -26 -426 -39 -573 -33 -153 6 -212 21 -256 63 -35 33 -77 128 -91 203 l-11 58 -58 -73 c-214 -268 -289 -466 -289 -758 0 -99 1 -108 18 -101 9 3 51 14 92 23 64 15 141 17 535 17 408 0 466 -2 516 -17 31 -10 67 -27 82 -38 23 -18 40 -20 210 -20 185 0 185 0 240 29 92 48 152 53 624 48 425 -4 472 -8 586 -43 15 -5 17 2 17 48 0 69 -24 226 -50 330 -55 214 -297 612 -432 710 -16 10 -28 15 -28 9z"/>
<path d="M3163 8445 c-42 -18 -73 -69 -73 -120 0 -43 53 -327 71 -383 15 -45 56 -92 96 -108 25 -11 102 -14 340 -14 278 0 312 2 349 19 46 21 78 57 93 104 5 18 22 116 37 218 l28 186 -20 34 c-11 19 -35 44 -54 56 -33 23 -34 23 -434 23 -322 -1 -407 -4 -433 -15z"/>
<path d="M4774 8441 c-46 -28 -64 -59 -64 -111 0 -50 43 -333 60 -391 13 -46 77 -106 122 -114 18 -3 173 -5 344 -3 l311 3 36 28 c55 41 71 84 106 272 37 199 38 229 11 273 -37 61 -47 62 -492 62 -379 0 -405 -1 -434 -19z"/>
<path d="M2742 8416 c-80 -92 -113 -229 -94 -398 29 -261 114 -439 251 -528 44 -28 52 -38 66 -88 120 -428 277 -714 540 -978 261 -264 549 -408 841 -421 197 -10 361 28 556 128 310 160 589 458 763 815 51 106 136 342 166 461 11 45 19 56 60 83 68 44 124 111 170 204 58 119 80 216 86 381 7 171 -5 223 -73 315 l-46 63 -24 -49 c-78 -158 -132 -285 -174 -410 -60 -176 -67 -189 -127 -245 -88 -82 -98 -84 -498 -84 l-350 0 -56 26 c-131 62 -176 142 -219 388 -17 100 -37 186 -48 205 -59 101 -205 102 -263 1 -10 -17 -29 -103 -44 -195 -15 -91 -36 -188 -47 -217 -26 -70 -96 -145 -166 -180 l-57 -28 -355 0 c-386 0 -384 0 -468 59 -56 40 -95 100 -128 199 -46 142 -213 527 -228 527 -2 0 -17 -15 -34 -34z"/>
<path d="M5390 6245 c-220 -226 -521 -396 -794 -450 -120 -23 -356 -17 -466 13 -240 64 -466 196 -670 390 -54 50 -101 92 -104 92 -3 0 -6 -21 -6 -47 -1 -79 -26 -196 -55 -252 -28 -56 -102 -135 -135 -146 -11 -4 -20 -9 -20 -13 0 -14 99 -160 161 -237 144 -181 395 -416 624 -585 81 -60 400 -271 453 -299 18 -10 42 3 184 96 462 302 781 590 1021 922 l75 105 -42 26 c-108 69 -149 169 -168 408 l-3 33 -55 -56z"/>
<path d="M4636 3418 c-27 -26 -43 -60 -76 -158 -42 -126 -306 -887 -427 -1230 -143 -405 -140 -394 -83 -451 53 -53 152 -29 177 42 6 19 54 156 106 304 415 1183 487 1393 487 1423 0 25 -9 43 -34 68 -47 47 -102 48 -150 2z"/>
<path d="M3710 3113 c-55 -38 -647 -517 -672 -544 -23 -24 -28 -38 -28 -82 0 -48 3 -56 38 -88 50 -49 641 -523 669 -537 89 -48 201 46 163 137 -8 21 -102 104 -297 262 -156 128 -281 235 -276 239 4 4 131 105 282 225 301 240 313 254 291 327 -20 68 -112 101 -170 61z"/>
<path d="M5148 3114 c-50 -27 -73 -102 -45 -150 7 -12 135 -123 285 -248 149 -124 272 -228 272 -230 0 -4 -122 -106 -355 -297 -193 -157 -215 -180 -215 -218 0 -71 48 -121 117 -121 48 0 5 -32 463 343 140 114 263 220 273 235 13 20 17 40 14 77 -4 44 -10 54 -43 82 -662 543 -662 543 -702 543 -21 -1 -49 -7 -64 -16z"/>
</g>
</svg>
